<?xml version="1.0" encoding="UTF-8"?>
<!DOCTYPE svg PUBLIC "-//W3C//DTD SVG 1.1//EN" "http://www.w3.org/Graphics/SVG/1.1/DTD/svg11.dtd">
<svg version="1.1" xmlns="http://www.w3.org/2000/svg" xmlns:xlink="http://www.w3.org/1999/xlink" x="0" y="0" width="910" height="1156" viewBox="0, 0, 910, 1156">
  <defs>
    <clipPath id="Clip_1">
      <path d="M0.06,0.99 L909.549,0.99 L909.549,1156 L0.06,1156 z"/>
    </clipPath>
    <clipPath id="Clip_2">
      <path d="M0.06,0.99 L909.549,0.99 L909.549,1156 L0.06,1156 z"/>
    </clipPath>
  </defs>
  <g id="Layer_1">
    <g clip-path="url(#Clip_1)">
      <path d="M227.051,1150.9 L259.551,1150.9 L244.801,989.146 L225.051,993.896 L227.051,1150.9" fill="#FEFEFE"/>
      <path d="M773.512,522.961 C773.335,524.573 772.151,524.657 770.997,524.763 C766.274,525.197 764.347,528.438 762.846,532.416 C742.444,586.466 721.973,640.489 701.583,694.543 C700.645,697.029 699.562,698.587 696.723,699.436 C663.632,709.325 630.596,719.402 597.55,729.44 C596.301,729.82 595.1,730.497 593.475,729.566 C594.8,727.657 596.103,725.777 597.407,723.898 C619.796,691.646 633.43,655.585 643.382,617.945 C648.526,598.49 652.593,578.797 655.461,558.877 C655.915,555.728 657.266,554.786 660.187,554.583 C669.977,553.903 679.769,553.089 689.312,550.616 C710.121,545.223 721.581,532.94 724.333,513.206 C727.459,490.78 719.31,472.634 700.952,462.339 C697.29,460.286 696.765,458.811 698.18,454.917 C704.789,436.73 708.872,417.885 711.33,398.718 C711.809,394.98 712.765,393.86 716.525,394.674 C721.044,395.652 726.873,393.628 730.04,396.475 C733.196,399.311 732.098,405.202 732.889,409.735 C738.323,440.851 750.685,468.758 770.89,493.123 C773.158,495.859 775.018,498.675 773.742,502.637 C773.335,503.9 773.741,505.729 774.392,506.976 C777.297,512.541 774.097,517.658 773.512,522.961 z M873.336,414.565 C868.909,385.454 859.551,358.074 842.25,333.879 C824.243,308.698 801.11,290.91 769.909,285.657 C756.524,283.404 744.114,285.119 737.083,299.085 C736.173,300.893 735.304,300.318 734.035,299.555 C729.05,296.557 724.064,293.549 718.956,290.77 C716.779,289.585 716.612,287.934 716.588,285.822 C716.265,257.465 713.558,229.319 708.37,201.452 C702.102,167.78 692.453,135.207 675.113,105.359 C657.065,74.294 632.412,50.87 598.1,38.299 C552.78,21.694 506.344,10.088 458.292,4.903 C426.275,1.448 394.234,0.028 362.071,1.674 C304.579,4.616 248.567,15.072 194.143,34.097 C171.419,42.041 150.254,52.184 132.981,69.467 C110.215,92.246 95.681,119.865 85.614,149.984 C66.79,206.3 62.116,264.421 64.463,323.362 C64.531,325.051 64.553,326.852 65.724,328.092 C67.668,330.152 67.583,332.561 67.548,335.067 C67.209,359.121 69.12,382.96 74.563,406.441 C78.586,423.799 84.738,440.344 94.186,455.8 C91.613,456.696 89.389,457.369 87.243,458.233 C68.97,465.595 57.257,478.286 55.238,498.486 C52.406,526.81 65.912,545.171 93.711,551.319 C102.035,553.16 110.484,553.886 118.942,554.529 C121.999,554.761 123.296,555.62 123.842,559.024 C129.62,595.038 137.7,630.471 151.317,664.457 C165.676,700.293 185.002,732.746 214.9,757.994 C218.714,761.214 214.815,761.636 213.358,762.543 C175.617,786.037 138.49,810.422 103.953,838.511 C87.14,852.184 70.683,866.326 58.297,884.382 C42.227,907.81 34.553,934.368 30.594,962.114 C29.812,967.592 28.198,971.102 22.684,973.004 C17.375,974.834 12.499,977.881 7.279,980.018 C2.138,982.122 -0.012,985.56 0,991.155 C0.112,1042.15 0.052,1093.14 0.081,1144.13 C0.085,1151.68 4.516,1155.99 12.06,1156 C82.049,1156 152.039,1156.01 222.029,1155.98 C227.639,1155.98 231.677,1153.42 233.733,1148.05 C234.251,1146.08 233.987,1144.08 233.988,1142.1 C234.007,1096.67 233.997,1051.24 234.264,1005.81 C234.501,1007.3 234.426,1008.8 235.355,1010.11 C238.48,1040.35 241.483,1070.6 244.783,1100.81 C246.424,1115.83 248.575,1130.8 250.569,1145.78 C251.156,1150.19 252.701,1153.84 258.107,1154.02 C265.415,1154.26 267.653,1151.76 267.664,1143.07 C269.253,1139.95 267.939,1136.82 267.505,1133.78 C264.041,1109.55 261.621,1085.2 259.047,1060.88 C256.754,1039.2 254.692,1017.5 252.619,995.8 C250.309,971.618 248.136,947.424 245.751,923.251 C244.836,913.982 244.445,904.66 243.064,895.44 C242.449,891.333 240.344,888.169 236.172,887.115 C232.245,886.124 228.473,886.724 225.724,890.09 C223.919,892.3 221.605,893.28 218.906,893.859 C188.062,900.479 157.922,909.534 128.375,920.531 C118.24,924.304 107.434,927.18 98.701,933.499 C91.563,938.665 83.871,942.334 76.144,946.099 C68.812,949.671 61.461,953.232 53.995,956.529 C51.772,957.51 49.947,957.721 50.626,954.254 C54.854,932.659 61.156,911.801 74.304,893.784 C86.076,877.652 101.033,864.557 116.486,852.11 C151.845,823.629 189.762,798.836 228.382,775.071 C231.166,773.358 233.544,773.297 236.269,774.904 C240.429,777.357 244.629,779.754 249,781.823 C251.385,782.952 252.362,784.697 252.27,787.394 C251.888,798.591 255.395,808.898 261.052,818.227 C278.671,847.284 306.987,860.071 338.386,867.734 C343.334,868.942 348.107,865.313 349.382,860.446 C350.649,855.61 348.073,850.786 343.077,848.883 C340.589,847.934 337.985,847.311 335.422,846.577 C322.367,842.841 309.966,837.672 298.748,829.88 C286.476,821.356 277.121,810.652 273.176,795.886 C272.003,791.497 272.519,790.893 276.722,792.131 C283.615,794.161 290.66,795.42 297.719,796.648 C300.701,797.166 303.505,798.106 306.09,799.754 C323.366,810.773 340.769,821.591 358.039,832.621 C360.848,834.415 362.714,836.638 363.861,839.785 C368.253,851.837 372.307,864.012 376.886,875.994 C379.303,882.317 380.203,888.751 380.193,895.532 C380.085,973.174 380.122,1050.82 380.129,1128.46 C380.13,1135.05 379.468,1141.73 382.371,1147.99 C384.006,1151.72 386.785,1153.7 390.94,1153.47 C395.112,1153.24 397.608,1150.94 398.723,1147.01 C401.051,1143.1 400.888,1138.79 400.887,1134.46 C400.865,1053.65 400.871,972.834 400.87,892.02 C400.87,888.354 400.836,884.718 402.129,881.169 C407.031,867.707 411.96,854.253 416.545,840.678 C417.839,836.844 420.166,834.124 423.611,832.009 C438.379,822.947 452.967,813.595 467.584,804.291 C470.994,802.12 474.5,800.276 478.573,799.761 C487.519,798.628 496.328,796.813 504.935,794.135 C508.209,793.116 508.883,794.154 508.016,797.153 C505.751,804.99 501.651,811.764 496.246,817.813 C483.597,831.968 467.212,839.836 449.568,845.574 C445.926,846.758 442.104,847.411 438.574,848.904 C433.255,851.153 430.758,856.157 432.306,860.963 C433.992,866.193 438.869,869.074 444.592,867.61 C464.113,862.615 482.67,855.434 498.715,842.812 C515.789,829.38 527.268,812.575 529.286,790.467 C529.683,786.118 531.38,784.074 534.969,782.187 C546.354,776.201 557.049,769.124 566.573,760.411 C569.482,757.749 572.862,756.117 576.588,755.01 C618.909,742.441 661.035,729.221 703.398,716.8 C711.217,714.507 715.548,710.287 718.397,702.621 C737.14,652.178 756.375,601.918 775.347,551.56 C777.438,546.009 777.869,545.797 783.376,547.689 C799.92,553.372 816.417,559.191 832.965,564.863 C840.329,567.387 840.346,567.394 838.683,575.228 C832.595,603.915 826.19,632.53 818.546,660.847 C809.118,695.774 798.859,730.402 783.56,763.361 C776.772,777.985 767.203,789.84 753.844,798.846 C733.309,812.69 711.252,823.659 688.679,833.635 C656.812,847.718 624.306,860.206 591.416,871.675 C576.632,876.83 561.872,882.12 546.784,886.326 C538.959,888.507 536.848,890.447 536.086,898.381 C534.956,910.14 534.005,921.917 532.873,933.673 C530.641,956.859 528.465,980.05 526.22,1003.23 C524.151,1024.6 522.042,1045.96 519.808,1067.31 C517.243,1091.81 514.598,1116.31 511.102,1140.7 C510.85,1142.46 510.227,1144.33 511.399,1146.05 C511.593,1146.68 511.811,1147.31 511.976,1147.95 C513.31,1153.17 516.922,1154.52 521.851,1154.03 C526.346,1153.58 528.046,1150.71 528.733,1146.78 C529.019,1145.14 529.287,1143.5 529.519,1141.85 C534.127,1109.21 537.534,1076.44 540.68,1043.63 C544.986,998.73 549.34,953.836 553.508,908.925 C553.862,905.107 555.003,903.222 558.847,901.986 C591.91,891.354 624.661,879.818 656.922,866.94 C691.368,853.191 725.304,838.41 757.083,819.008 C777.021,806.835 792.393,790.953 801.305,769.149 C804.636,761.001 808.374,753.012 811.464,744.776 C831.554,691.225 844.818,635.791 856.337,579.91 C858.11,571.312 863.045,562.538 857.5,553.49 C857.431,553.377 857.492,553.155 857.546,553.003 C859.75,546.713 858.103,538.904 865.211,534.495 C866.728,533.555 867.499,531.291 868.421,529.535 C872.751,521.284 874.395,512.265 875.389,503.163 C878.625,473.551 877.808,443.971 873.336,414.565" fill="#6E4100"/>
    </g>
    <path d="M398.723,1147.01 C398.842,1142.69 399.062,1138.37 399.063,1134.05 C399.084,1053.07 399.087,972.095 399.048,891.118 C399.046,887.743 399.455,884.537 400.61,881.348 C405.759,867.126 410.864,852.886 415.861,838.61 C416.9,835.64 418.512,833.553 421.247,831.856 C436.382,822.467 451.467,812.991 466.412,803.303 C471.149,800.232 476.043,798.532 481.651,797.87 C491.237,796.738 500.589,794.286 509.809,791.283 C511.128,792.928 510.201,794.466 509.803,795.994 C505.762,811.511 495.755,822.553 482.978,831.417 C470.659,839.962 456.853,845.193 442.474,849.066 C440.237,849.669 437.903,850.05 436.068,851.669 C432.927,854.439 432.112,857.921 433.769,861.609 C435.646,865.785 439.209,867.302 443.68,866.298 C454.264,863.923 464.491,860.426 474.311,855.855 C493.419,846.96 509.902,834.906 520.194,815.918 C525.159,806.759 528.608,797.051 527.656,786.377 C527.468,784.269 528.567,783.826 529.916,783.168 C543.771,776.412 556.461,767.923 567.841,757.516 C569.902,755.631 572.4,754.876 574.946,754.105 C618.857,740.795 662.751,727.432 706.699,714.243 C711.32,712.856 713.912,710.315 715.594,705.842 C735.322,653.402 755.243,601.035 774.916,548.575 C776.397,544.625 777.786,544.131 781.586,545.494 C800.204,552.176 818.922,558.579 837.639,564.983 C840.251,565.876 841.97,566.584 841.234,570.071 C829.752,624.444 817.219,678.534 798.424,730.954 C792.639,747.089 786.09,762.893 777.437,777.769 C772.518,786.224 765.258,792.279 757.555,797.841 C735.154,814.015 710.272,825.664 685.122,836.706 C641.227,855.977 596.245,872.478 550.44,886.489 C540.689,889.471 537.589,893.269 536.958,902.81 C535.399,926.382 532.815,949.888 530.515,973.409 C527.34,1005.87 524.072,1038.33 520.798,1070.79 C518.444,1094.13 515.886,1117.45 512.477,1140.67 C512.212,1142.48 511.763,1144.25 511.399,1146.05 C503.757,1146.02 496.11,1146.17 488.474,1145.93 C460.43,1145.07 432.38,1144.98 404.328,1145 C402.216,1145 399.939,1144.52 398.723,1147.01" fill="#D1DFB7"/>
    <path d="M267.664,1143.07 C264.676,1127.86 263.252,1112.44 261.568,1097.07 C258.161,1065.96 254.935,1034.84 251.834,1003.7 C249.244,977.699 246.942,951.667 244.507,925.647 C243.561,915.539 242.592,905.432 241.653,895.323 C241.303,891.564 239.23,889.063 235.727,888.115 C231.885,887.075 228.208,887.867 226.205,891.611 C224.877,894.093 222.862,894.49 220.575,894.985 C181.469,903.454 142.879,914.095 106.756,931.294 C88.474,939.998 70.82,950.271 52.374,958.852 C51.34,959.334 50.271,959.741 48.822,960.349 C47.95,956.323 49.519,952.944 50.115,949.507 C56.938,910.172 78.792,880.588 109.316,856.003 C147.409,825.321 187.929,798.276 229.526,772.715 C231.646,771.412 233.097,771.341 235.298,772.647 C240.727,775.868 246.4,778.68 251.98,781.645 C253.244,782.316 254.722,782.485 254.286,784.749 C252.035,796.425 256.335,806.781 261.731,816.582 C272.684,836.473 290.397,848.533 310.673,857.388 C318.62,860.859 326.845,863.534 335.214,865.751 C342.194,867.6 346.86,865.587 348.265,860.356 C349.666,855.143 346.563,851.036 339.708,849.222 C321.999,844.534 305.252,837.825 291.133,825.765 C280.432,816.624 273.01,805.449 270.694,791.297 C270.592,790.677 270.681,790.026 270.681,788.957 C281.186,792.213 291.549,794.367 302.022,796.041 C303.258,796.238 304.425,797.111 305.536,797.81 C323.844,809.337 342.125,820.907 360.454,832.402 C362.534,833.707 363.808,835.293 364.629,837.661 C368.767,849.595 372.865,861.554 377.449,873.32 C380.767,881.836 382.057,890.412 382.032,899.57 C381.826,976.888 381.906,1054.21 381.934,1131.53 C381.936,1137.01 382.219,1142.5 382.371,1147.99 C381.173,1144.12 378.104,1144.1 374.815,1144.1 C342.892,1144.06 310.969,1143.98 279.046,1143.84 C275.251,1143.82 271.458,1143.34 267.664,1143.07" fill="#D1DFB7"/>
    <path d="M880.437,180.769 C880.511,184.662 878.828,186.987 876.154,188.722 C860.813,198.678 845.498,208.675 830.104,218.548 C825.492,221.505 820.431,220.484 817.793,216.44 C815.118,212.341 816.125,207.43 820.819,204.339 C836.233,194.191 851.69,184.103 867.292,174.247 C873.409,170.382 880.495,174.423 880.437,180.769" fill="#FF7164"/>
    <g clip-path="url(#Clip_2)">
      <path d="M800.532,128.317 C799.493,133.349 797.268,138.725 794.976,144.047 C791.369,152.421 786.962,160.429 784.164,169.181 C782.61,174.044 777.754,176.107 773.35,174.522 C768.808,172.887 766.688,168.661 768.172,163.651 C769.206,160.156 770.369,156.666 771.862,153.348 C776.22,143.668 781.035,134.199 784.316,124.049 C785.738,119.651 789.236,117.872 793.717,118.628 C798.266,119.396 800.816,122.949 800.532,128.317" fill="#FF7164"/>
      <path d="M909.431,268.834 C910.18,273.492 907.3,276.01 902.926,276.825 C889.714,279.287 876.471,281.591 863.207,283.755 C858.818,284.471 854.874,281.273 854.172,277.04 C853.368,272.199 855.681,268.01 860.296,267.141 C873.667,264.624 887.064,262.22 900.506,260.122 C906.449,259.194 909.43,262.322 909.431,268.834" fill="#FF7164"/>
    </g>
    <path d="M233.733,1148.05 C233.733,1099.07 233.733,1050.08 233.733,1001.1 C233.964,1004.16 236.143,1006.88 235.355,1010.11 C234.045,1011.92 234.681,1013.98 234.68,1015.92 C234.638,1058.05 234.658,1100.18 234.616,1142.32 C234.614,1144.24 235.31,1146.34 233.733,1148.05" fill="#FEFEFE"/>
    <path d="M650.59,426.284 C648.119,481.382 644.034,536.282 632.421,590.338 C623.611,631.345 611.023,670.995 588.305,706.727 C568.755,737.477 543.106,761.059 508.355,773.78 C488.061,781.209 466.833,782.564 445.564,784.102 C398.363,787.516 351.38,784.515 304.572,778.909 C259.238,773.479 223.883,750.635 197.238,713.924 C176.034,684.711 163.043,651.74 153.544,617.242 C142.55,577.318 136.859,536.498 133.411,495.317 C130.827,464.455 128.949,433.55 129.105,402.571 C129.249,374.05 131.697,345.759 138.418,317.915 C139.507,313.402 141.668,311.911 145.835,311.008 C198.982,299.494 252.801,293.253 307.018,289.903 C334.608,288.198 362.214,287.287 389.847,286.864 C393.51,286.808 395.837,287.964 398.336,290.649 C415.461,309.044 432.077,328.001 452.201,343.311 C460.332,349.497 469.064,354.729 479.691,355.232 C490.505,355.745 497.274,351.482 501.83,341.64 C504.095,336.747 505.147,331.583 505.74,326.246 C505.94,324.448 505.005,321.758 507.312,320.956 C509.23,320.29 510.37,322.562 511.716,323.692 C518.61,329.485 525.632,335.1 533.862,338.916 C539.651,341.599 545.704,343.457 552.187,342.637 C564.65,341.061 570.671,332.505 574.338,321.642 C576.218,316.071 576.681,310.236 576.596,304.391 C576.558,301.762 576.921,300.427 580.15,300.926 C597.744,303.641 615.234,306.888 632.659,310.523 C635.379,311.09 635.796,312.973 636.494,315.025 C647.395,347.067 651.576,380.061 650.606,413.8 C650.487,417.958 650.59,422.123 650.59,426.284" fill="#FEF5E2"/>
    <path d="M699.333,311.206 C686.213,306.835 673.205,302.859 660.014,299.521 C624.802,290.611 589.084,284.514 553.06,280.049 C500.46,273.531 447.641,270.411 394.668,270.026 C360.529,269.779 326.439,271.388 292.379,273.801 C260.818,276.037 229.382,279.31 198.112,284.112 C159.925,289.976 122.116,297.533 85.432,309.963 C82.971,310.796 80.654,312.031 80.657,307.532 C80.691,254.51 85.271,202.135 103.06,151.69 C111.884,126.666 124.008,103.487 142.571,84.118 C154.256,71.926 167.813,62.408 183.579,56.318 C228.959,38.787 275.788,27.184 324.199,21.894 C353.556,18.687 382.961,17.091 412.457,18.342 C475.602,21.019 536.9,32.886 595.929,55.847 C624.767,67.065 645.032,87.75 660.325,113.873 C676.416,141.36 685.315,171.453 691.198,202.488 C697.821,237.434 700.586,272.737 699.604,308.311 C699.582,309.13 699.454,309.946 699.333,311.206" fill="#D1DFB7"/>
    <path d="M116.883,1147 C85.223,1147 53.562,1146.93 21.903,1147.09 C18.068,1147.11 16.952,1146.21 16.965,1142.24 C17.115,1095.75 17.111,1049.26 16.972,1002.77 C16.96,998.735 17.811,997.352 22.113,997.43 C37.272,997.705 52.439,997.629 67.601,997.464 C70.843,997.429 71.85,998.293 71.778,1001.6 C71.563,1011.43 71.628,1021.26 71.722,1031.09 C71.811,1040.36 77.826,1043.92 86.017,1039.51 C87.768,1038.57 88.968,1038.56 90.436,1039.71 C94.789,1043.1 99.252,1043.34 103.635,1039.83 C105.531,1038.31 107.114,1038.58 108.893,1039.95 C113.152,1043.23 117.509,1043.13 121.694,1039.88 C123.578,1038.41 125.065,1038.45 126.924,1039.9 C131.124,1043.2 135.503,1043.2 139.716,1039.92 C141.576,1038.48 142.97,1038.67 145.013,1039.82 C152.192,1043.87 158.477,1040.12 158.514,1031.91 C158.561,1021.74 158.635,1011.58 158.458,1001.42 C158.406,998.443 159.071,997.429 162.258,997.46 C179.086,997.625 195.918,997.645 212.745,997.453 C216.429,997.411 217.071,998.751 217.065,1002.06 C216.97,1048.89 216.944,1095.71 217.104,1142.53 C217.117,1146.45 215.931,1147.1 212.362,1147.08 C180.536,1146.94 148.709,1147 116.883,1147" fill="#FEFEFE"/>
    <path d="M764.87,396.263 C764.286,398.94 763.748,401.201 763.305,403.481 C759.844,421.259 766.983,432.73 784.52,436.852 C788.325,437.747 788.551,438.41 786.624,441.693 C780.248,452.553 782.246,465.809 791.397,474.583 C797.705,480.632 805.374,484.103 814.006,485.321 C819.039,486.031 822.816,483.465 823.774,478.986 C824.801,474.182 822.397,470.202 817.313,468.844 C812.789,467.636 808.318,466.43 804.572,463.433 C798.935,458.923 798.534,452.687 803.482,447.443 C806.443,444.305 810.24,442.669 814.172,441.273 C820.064,439.179 821.997,436.738 821.596,431.693 C821.237,427.182 818.494,424.946 812.728,423.995 C804.525,422.644 796.145,422.408 788.089,420.175 C779.922,417.911 778.215,414.976 779.986,406.629 C783.3,391.003 789.457,386.192 805.41,387.085 C809.712,387.326 813.989,388.098 818.267,388.703 C823.151,389.393 827.558,386.553 828.422,382.071 C829.343,377.297 826.668,373.107 821.71,372.083 C817.643,371.242 813.495,370.79 809.383,370.169 C808.15,369.983 806.703,370.382 806.586,368.266 C806.015,357.883 799.783,350.428 793.144,343.364 C781.902,331.401 768.563,321.995 755.058,312.81 C753.612,311.827 750.918,311.441 751.735,308.582 C752.436,306.132 753.408,303.932 756.118,302.935 C760.379,301.366 764.665,301.79 768.912,302.67 C795.39,308.16 814.628,323.919 829.622,345.652 C845.571,368.769 853.634,394.813 857.264,422.296 C860.737,448.596 861.477,475.023 858.451,501.461 C857.77,507.421 856.578,513.26 854.572,518.942 C853.786,521.167 852.707,522.252 850.239,521.87 C831.253,518.927 812.888,513.996 795.636,505.302 C792.449,503.696 791.146,501.689 791.152,497.963 C791.16,492.078 788.105,487.098 784.445,482.731 C764.792,459.277 753.592,432.156 748.783,402.128 C748.087,397.782 748.323,395.546 753.558,396.18 C757.145,396.614 760.828,396.263 764.87,396.263" fill="#FEFEFE"/>
    <path d="M654.914,315.942 C669.277,319.453 682.74,323.505 696.012,328.24 C698.832,329.246 698.432,331.357 698.467,333.494 C698.728,349.474 697.838,365.418 696.306,381.298 C694.117,403.994 690.168,426.387 682.551,447.983 C681.769,450.198 681.862,453.774 679.029,453.987 C675.126,454.28 671.042,453.646 667.208,452.703 C665.495,452.281 666.331,449.715 666.402,448.158 C667.243,429.711 667.936,411.261 667.503,392.791 C666.919,367.903 662.932,343.551 655.834,319.698 C655.55,318.744 655.357,317.763 654.914,315.942" fill="#CFA871"/>
    <path d="M716.768,309.895 C719.561,310.185 721.277,311.887 723.222,313.048 C740.82,323.551 758.028,334.626 773.519,348.145 C779.302,353.193 784.802,358.52 788.447,365.428 C790.191,368.732 789.901,370.44 785.924,372.617 C768.241,382.296 749.313,378.705 730.72,378.71 C726.08,378.711 721.443,377.911 716.796,377.611 C714.408,377.457 713.885,376.459 714.059,374.108 C715.14,359.495 715.368,344.852 715.61,330.201 C715.721,323.507 716.507,316.76 716.768,309.895" fill="#D1DFB7"/>
    <path d="M707.852,505.548 C706.431,523.568 699.61,531.234 682.059,534.841 C675.549,536.179 668.938,536.908 662.287,537.322 C659.843,537.474 658.688,537.534 659.074,534.372 C661.533,514.241 663.691,494.075 664.676,473.807 C664.816,470.912 665.668,469.759 668.837,470.186 C676.619,471.237 684.286,472.612 691.283,476.361 C703.218,482.755 708.595,492.839 707.852,505.548" fill="#FEF5E2"/>
    <path d="M72.067,504.274 C71.741,490.79 78.163,481.505 89.988,475.661 C96.637,472.374 103.806,471 111.121,470.233 C113.044,470.032 114.445,469.804 114.64,472.701 C116.022,493.284 117.607,513.855 120.394,534.309 C120.702,536.57 120.377,537.596 117.611,537.361 C110.308,536.74 103.027,536.068 95.89,534.334 C78.911,530.21 72.093,521.593 72.067,504.274" fill="#FEF5E2"/>
    <path d="M418.377,287.625 C443.096,288.09 466.873,289.131 490.918,291.2 C488.862,295.181 488.81,298.96 489.129,303.059 C489.863,312.5 489.817,322.008 487.468,331.295 C485.682,338.355 482.643,339.812 475.721,337.184 C468.625,334.49 462.617,330.044 456.813,325.289 C443.043,314.006 431.673,300.327 418.377,287.625" fill="#CFA871"/>
    <path d="M97.531,323.947 C105.108,321.669 112.685,319.392 121.147,316.848 C110.9,361.975 110.863,406.984 113.46,452.469 C109.852,450.604 109.564,446.766 107.516,444.217 C95.702,413.368 95.484,381.115 96.173,348.797 C96.349,340.517 97.98,332.284 97.531,323.947" fill="#CFA871"/>
    <path d="M345.55,799.964 C375.339,802.442 405.172,803.301 435.345,802.768 C426.452,808.411 417.635,814.179 408.63,819.636 C405.006,821.831 402.674,824.556 401.346,828.624 C398.617,836.985 395.51,845.223 392.475,853.48 C391.937,854.944 391.955,856.765 390.006,857.996 C386.443,848.036 382.842,838.295 379.501,828.467 C378.199,824.639 376.051,821.933 372.559,819.814 C362.471,813.695 352.559,807.284 342.579,800.988 C342.839,798.527 344.379,799.781 345.55,799.964" fill="#FEF5E2"/>
    <path d="M168.444,938.058 C156.634,943.642 144.833,949.245 133.012,954.806 C116.782,962.44 100.494,969.952 84.328,977.719 C80.159,979.722 76.029,980.707 71.41,980.566 C63.971,980.339 56.519,980.505 48.802,979.486 C55.74,976.205 62.673,972.917 69.616,969.646 C90.805,959.665 112.022,949.74 133.167,939.665 C136.705,937.979 140.174,937.02 144.137,937.129 C152.128,937.349 160.129,937.195 168.126,937.195 C168.232,937.482 168.338,937.77 168.444,938.058" fill="#FEFEFE"/>
    <path d="M115.552,997.746 C122.533,997.745 129.521,997.926 136.493,997.672 C140.238,997.535 142.032,998.414 141.598,1002.56 C141.254,1005.85 141.164,1009.25 141.615,1012.51 C142.276,1017.29 140.614,1020.07 136.194,1022.01 C133.88,1023.03 132.335,1023.2 130.346,1021.72 C126.419,1018.79 122.335,1018.82 118.374,1021.69 C116.218,1023.25 114.287,1023.41 112.082,1021.71 C108.189,1018.7 104.314,1018.86 100.172,1021.64 C95.868,1024.53 88.715,1020.37 88.662,1015.16 C88.616,1010.67 88.8,1006.17 88.602,1001.69 C88.467,998.638 89.588,997.629 92.615,997.693 C100.257,997.855 107.906,997.746 115.552,997.746" fill="#CFA870"/>
    <path d="M121.235,979.215 C133.509,973.434 145.782,967.648 158.059,961.872 C173.397,954.656 188.856,947.683 204.028,940.134 C211.431,936.451 219.024,938.33 226.543,937.811 C228.03,937.709 228.412,938.756 228.608,940.061 C228.921,942.138 227.772,943.041 226.127,943.808 C218.144,947.533 210.187,951.316 202.214,955.063 C187.019,962.203 171.748,969.187 156.658,976.541 C151.124,979.238 145.616,980.712 139.438,980.368 C133.477,980.035 127.482,980.296 121.502,980.296 C121.413,979.935 121.324,979.575 121.235,979.215" fill="#CFA871"/>
    <path d="M97.531,323.947 C101.184,324.578 99.469,327.411 99.279,329.087 C97.39,345.661 97.081,362.283 97.555,378.925 C98.13,399.109 100.755,419.002 106.7,438.362 C107.298,440.312 107.762,442.192 107.516,444.217 C98.759,430.871 94.243,415.848 90.72,400.532 C85.482,377.763 84.112,354.601 84.452,331.291 C84.489,328.732 85.512,327.806 87.606,327.167 C90.932,326.151 94.224,325.026 97.531,323.947" fill="#FEFEFE"/>
    <path d="M505.552,291.919 C522.358,293.824 539.159,295.78 555.975,297.589 C559.009,297.915 559.713,299.311 559.65,302.134 C559.506,308.65 559.378,315.106 556.107,321.025 C553.886,325.041 550.82,326.601 546.182,325.311 C541.103,323.899 536.706,321.249 532.489,318.317 C522.204,311.163 513.691,302.08 505.552,291.919" fill="#CFA871"/>
    <path d="M841.025,548.156 C824.595,542.442 808.497,536.682 792.274,531.298 C787.332,529.658 790.435,526.679 790.72,524.5 C791.177,521.004 793.424,523.421 794.74,523.975 C808.422,529.736 822.582,533.934 837.087,536.978 C843.47,538.318 843.496,538.197 841.908,544.67 C841.672,545.631 841.423,546.588 841.025,548.156" fill="#FEF4E1"/>
    <path d="M190.329,979.474 C202.929,973.566 215.553,967.708 228.105,961.7 C230.215,960.69 230.685,961.306 230.852,963.258 C231.164,966.904 231.481,970.552 231.943,974.181 C232.182,976.06 231.224,976.834 229.744,977.557 C225.985,979.391 222.26,980.772 217.869,980.63 C208.775,980.337 199.665,980.541 190.561,980.541 C190.484,980.186 190.406,979.83 190.329,979.474" fill="#FDFDFC"/>
    <path d="M192.506,919.054 C202.618,916.678 212.744,914.36 222.832,911.886 C225.387,911.259 226.869,911.757 226.356,914.534 C225.983,916.554 228.991,920.247 223.787,920.216 C213.344,920.155 202.9,920.198 192.456,920.198 C192.472,919.817 192.489,919.435 192.506,919.054" fill="#FDFDFD"/>
    <path d="M345.55,799.964 C344.616,800.469 343.218,799.627 342.579,800.988 C342.105,800.64 341.321,800.362 341.222,799.929 C341.022,799.048 341.878,799.034 342.451,799.145 C343.498,799.347 344.518,799.684 345.55,799.964" fill="#B49B77"/>
    <path d="M494.904,914.765 C501.228,914.765 507.552,914.741 513.875,914.772 C519.903,914.801 523.466,918.683 522.907,924.702 C521.047,944.739 519.282,964.785 517.211,984.8 C515.262,1003.63 498.792,1019.47 478.955,1022 C469.766,1023.17 460.667,1023.02 451.933,1019.53 C435.582,1013 425.47,996.031 425.907,976.143 C426.258,960.177 426.597,944.211 426.9,928.244 C427.069,919.361 429.73,916.623 438.532,916.447 C448.013,916.257 457.494,915.991 466.977,915.893 C476.286,915.798 485.597,915.872 494.908,915.872 C494.907,915.503 494.905,915.134 494.904,914.765" fill="#6E4100"/>
    <path d="M286.884,916.448 C305.841,916.448 324.798,916.383 343.755,916.478 C352.188,916.52 354.93,919.51 355.093,928.038 C355.397,944.005 355.7,959.972 356.095,975.936 C356.586,995.784 346.524,1012.8 330.251,1019.46 C306.57,1029.14 278.421,1018.51 267.817,996.028 C264.733,989.489 264.631,982.479 263.93,975.564 C262.202,958.524 260.606,941.47 259.046,924.413 C258.527,918.731 262.193,914.825 267.912,914.774 C274.235,914.719 280.56,914.762 286.883,914.762 C286.884,915.324 286.884,915.886 286.884,916.448" fill="#6E4100"/>
    <path d="M206.971,579.136 C193.114,578.544 179.516,576.809 167.98,568.045 C153.31,556.901 151.124,541.304 162.44,526.796 C173.572,512.525 188.324,505.991 206.536,505.915 C223.71,505.844 237.309,512.163 247.032,526.102 C257.765,541.486 255.458,555.259 240.889,567.157 C231.022,575.216 220.016,579.966 206.971,579.136" fill="#FFE0C5"/>
    <path d="M583.547,576.123 C569.027,576.304 556.774,573.836 546.037,566.327 C533.536,557.583 530.791,543.982 538.898,531.006 C547.369,517.447 559.91,510.871 575.468,508.979 C590.967,507.093 604.351,511.198 615.241,522.448 C620.285,527.659 623.929,533.992 625.196,541.136 C626.693,549.575 622.574,556.544 616.799,562.027 C607.147,571.193 596.04,577.569 583.547,576.123" fill="#FFE0C5"/>
    <path d="M381.556,718.052 C370.561,717.846 357.949,707.547 349.672,691.017 C347.677,687.033 346.23,682.728 344.945,678.447 C343.344,673.112 345.239,669.257 349.605,667.979 C354.332,666.596 357.872,668.873 359.442,674.436 C360.941,679.744 363.024,684.778 366.081,689.387 C377.323,706.333 400.395,708.02 414.052,692.906 C420.379,685.904 423.714,677.509 425.546,668.404 C425.809,667.099 425.984,665.771 426.341,664.493 C427.527,660.25 430.703,658.189 434.976,658.916 C439.118,659.62 440.878,662.454 440.968,666.337 C441.593,693.311 417.109,718.063 381.556,718.052" fill="#6E4100"/>
    <path d="M511.66,447.893 C511.47,456.3 509.607,462.774 505.239,468.305 C496.345,479.567 480.67,478.031 473.975,465.328 C467.987,453.965 470.523,437.401 479.638,428.336 C486.432,421.58 494.534,421.157 501.887,427.378 C508.63,433.082 511.928,440.421 511.66,447.893" fill="#6E4100"/>
    <path d="M313.546,447.921 C313.59,456.194 311.588,462.921 306.891,468.674 C298.267,479.238 283.303,478 276.413,466.225 C269.566,454.525 272.511,436.286 282.693,427.333 C288.993,421.793 296.523,421.5 303.073,426.765 C310.078,432.395 313.885,439.637 313.546,447.921" fill="#6E4100"/>
    <path d="M291.604,298.971 C300.435,299.265 307.632,303.91 312.31,312.469 C314.494,316.464 313.633,320.085 310.164,321.951 C306.135,324.117 303.264,322.48 300.932,318.955 C295.224,310.325 287.152,309.697 279.828,317.231 C275.695,321.483 272.266,322.103 269.182,319.156 C266.112,316.223 266.425,312.371 270.32,308.229 C275.79,302.412 282.444,299.038 291.604,298.971" fill="#6E4100"/>
    <path d="M400.982,494.903 C400.724,499.894 399.267,502.834 395.571,504.357 C391.715,505.944 388.242,505.136 385.596,502.144 C381.504,497.516 379.574,491.799 379.073,485.751 C378.757,481.932 380.815,478.984 384.492,477.639 C388.046,476.34 391.682,476.661 393.979,479.861 C397.46,484.71 398.134,490.887 400.982,494.903" fill="#6E4100"/>
    <path d="M446.112,231.069 C427.337,230.471 408.56,229.352 389.786,229.41 C367.677,229.478 345.571,230.543 323.465,231.222 C313.042,231.542 310.963,229.891 309.335,219.667 C306.099,199.338 315.42,181.449 334.482,171.487 C349.725,163.521 366.289,160.998 383.154,160.253 C401.21,159.455 419.094,160.977 436.244,167.165 C453.379,173.347 466.615,183.621 470.996,202.45 C472.728,209.89 472.312,217.331 470.334,224.657 C469.162,229 466.279,231.354 461.586,231.288 C456.43,231.215 451.272,231.271 446.115,231.271 C446.114,231.204 446.113,231.136 446.112,231.069" fill="#6E4100"/>
    <path d="M493.772,933.186 C505.525,931.755 505.352,931.736 504.018,943.572 C502.64,955.796 501.511,968.052 500.549,980.316 C500.157,985.307 498.636,989.699 495.803,993.739 C488.789,1003.74 473.344,1008.36 460.254,1004.35 C449.864,1001.16 443.141,991.26 443.122,978.354 C443.102,964.548 443.573,950.742 443.575,936.936 C443.576,933.073 445.734,933.166 448.391,933.171 C463.518,933.202 478.645,933.186 493.772,933.186" fill="#D1DFB7"/>
    <path d="M338.918,958.72 C338.918,965.372 339.019,972.025 338.897,978.675 C338.643,992.472 330.49,1003.19 319.009,1005 C301.831,1007.71 287.632,1000.769 282.717,987.328 C281.194,983.163 281.47,978.789 281.023,974.512 C279.673,961.617 278.613,948.691 277.305,935.79 C277.031,933.087 277.473,931.89 280.566,931.975 C298.683,932.473 316.805,932.85 334.927,933.149 C337.985,933.199 338.414,934.733 338.379,937.26 C338.28,944.413 338.344,951.568 338.344,958.722 C338.536,958.721 338.727,958.721 338.918,958.72" fill="#D1DFB7"/>
    <path d="M446.216,213.786 C425.257,213.321 404.298,212.797 383.336,212.436 C378.694,212.356 374.028,212.707 369.399,213.133 C366.465,213.404 364.867,212.273 363.501,209.748 C359.377,202.122 355.629,194.343 352.457,186.268 C351.446,183.695 351.567,182.581 354.587,181.762 C370.178,177.536 385.975,176.299 402.043,177.655 C412.532,178.541 422.854,180.135 432.687,184.055 C440.252,187.071 446.972,191.263 451.27,198.484 C452.199,200.044 452.936,201.754 453.526,203.475 C456.645,212.575 455.557,214.109 446.216,213.786" fill="#CFA871"/>
    <path d="M335.847,191.261 C339.14,198.625 342.315,205.725 345.64,213.159 C339.724,214.495 333.772,213.718 327.906,214.114 C325.171,214.299 325.598,212.305 325.691,210.737 C326.159,202.883 329.305,196.384 335.847,191.261" fill="#FEF4E1"/>
  </g>
</svg>
